<svg version="1.1" viewBox="0 0 400 134.5" xmlns="http://www.w3.org/2000/svg">
 <g fill-rule="evenodd">
  <path d="m64.083 19.352c-2.478 0.304-4.026 0.53-4.666 0.681-0.367 0.086-1.004 0.222-1.417 0.301s-0.975 0.215-1.25 0.304c-0.275 0.088-0.95 0.289-1.5 0.446-1.502 0.429-4.079 1.325-5.083 1.767-0.229 0.101-0.642 0.281-0.917 0.398-6.967 2.986-14.896 8.916-18.833 14.084-0.454 0.596-0.964 1.234-1.134 1.417-3.27 3.531-7.431 12.886-8.674 19.5-0.732 3.899-0.96 10.696-0.477 14.25 0.356 2.62 0.963 5.738 1.379 7.083 0.876 2.83 2.145 6.097 2.915 7.5 0.2 0.367 0.712 1.333 1.136 2.147 0.424 0.813 1.033 1.845 1.354 2.292 0.321 0.446 0.584 0.853 0.584 0.903 0 0.1 1.315 2.038 1.583 2.333 0.092 0.101 0.355 0.428 0.584 0.728 7.357 9.609 18.554 16.35 30.583 18.411 4.108 0.704 11.322 0.659 15.25-0.094 0.962-0.184 2.125-0.406 2.583-0.492 0.459-0.087 1.021-0.222 1.25-0.301 0.23-0.078 0.867-0.271 1.417-0.428 1.19-0.339 2.178-0.656 2.75-0.881 0.229-0.091 0.754-0.295 1.167-0.455 2.561-0.994 5.305-2.292 6.916-3.272 0.275-0.168 0.613-0.354 0.75-0.414 0.138-0.06 0.475-0.271 0.75-0.468 0.275-0.198 1.018-0.683 1.65-1.078 2.716-1.695 3.253-3.609 1.539-5.487-1.208-1.324-2.466-1.194-5.355 0.552-12.225 7.387-25.967 8.956-38.334 4.379-2.018-0.748-6.582-2.997-7.5-3.697l-0.583-0.445v-69.282l1.458-0.905c1.447-0.897 4.588-2.513 5.709-2.937 0.749-0.283 3.197-1.125 4.166-1.433 0.413-0.132 1.313-0.36 2-0.509 0.688-0.148 1.522-0.34 1.853-0.426 0.331-0.087 0.856-0.159 1.167-0.161 0.31-1e-3 1.164-0.111 1.897-0.244 1.546-0.279 7.149-0.328 9.042-0.078 0.664 0.087 1.714 0.226 2.333 0.307 0.619 0.082 1.462 0.228 1.875 0.326 0.412 0.098 1.265 0.299 1.896 0.448 0.63 0.149 1.305 0.33 1.5 0.403 0.194 0.073 0.766 0.261 1.271 0.418 1.016 0.316 1.293 0.419 2.214 0.817 0.347 0.15 0.699 0.273 0.783 0.273 0.422 0 5.301 2.55 6.503 3.399 2.304 1.627 2.943 1.935 4.022 1.935 2.491 0 3.821-2.496 2.473-4.641-0.679-1.081-9.457-6.359-10.576-6.359-0.065 0-0.355-0.103-0.644-0.228-5.815-2.517-15.08-3.856-21.359-3.087m70.25 0.078c-4.538 0.79-7.59 2.321-10.591 5.315-4.592 4.581-6.552 10.676-6.072 18.883 0.552 9.442 4.491 15.25 12.58 18.549 4.183 1.705 12.48 1.375 18.217-0.725 1.849-0.677 1.847-0.673 1.14-3.035-0.137-0.459-0.336-1.134-0.443-1.5-0.269-0.926-0.553-1.192-1.034-0.969-4.69 2.182-11.508 2.756-15.38 1.295-3.053-1.151-7.083-4.938-7.083-6.656 0-0.129-0.069-0.277-0.154-0.329-0.237-0.147-0.949-2.606-1.376-4.758-0.284-1.43-0.275-7.254 0.013-8.5 0.895-3.866 1.583-5.521 3.15-7.572 1.592-2.084 3.38-3.334 6.283-4.394 0.81-0.295 3.554-0.701 4.738-0.7 2.551 2e-3 5.966 0.795 8.641 2.008 1.318 0.597 1.33 0.59 1.96-1.175 1.134-3.174 1.135-3.141-0.122-3.731-4.079-1.916-10.146-2.757-14.467-2.006m220.75-0.015c-1.514 0.233-2.768 0.51-3.5 0.772-1.229 0.442-3.053 1.245-3.621 1.596-0.342 0.211-0.699 0.384-0.792 0.384-0.094 0-0.171 0.056-0.171 0.125-1e-3 0.068-0.282 0.309-0.625 0.535-1.194 0.785-3.083 2.667-4.307 4.292-3.575 4.747-4.965 13.493-3.292 20.714 0.717 3.093 2.49 6.687 4.316 8.75 0.244 0.275 0.605 0.688 0.804 0.917 1.008 1.164 3.658 3.073 5.188 3.738 0.367 0.16 0.806 0.364 0.977 0.455 0.424 0.227 2.013 0.722 3.023 0.942 0.459 0.1 1.284 0.28 1.834 0.399 3.361 0.727 8.734-0.028 12.464-1.752 8.095-3.74 12.62-14.376 10.615-24.949-0.525-2.77-0.593-3.061-0.8-3.447-0.108-0.2-0.197-0.5-0.198-0.667-3e-3 -0.504-2.097-4.49-2.922-5.562-4.347-5.649-11.532-8.388-18.993-7.242m-186.18 0.877c-0.152 0.102-1.232 2.257-1.232 2.457 0 0.033-0.271 0.646-0.602 1.363-0.331 0.716-0.748 1.672-0.926 2.124-0.178 0.451-0.516 1.239-0.752 1.751-0.236 0.511-0.49 1.08-0.564 1.263-0.075 0.183-0.365 0.845-0.646 1.47s-0.51 1.207-0.51 1.294c0 0.086-0.072 0.287-0.159 0.447-0.087 0.159-0.266 0.551-0.398 0.872-0.488 1.19-1.657 4.115-2.031 5.084-0.577 1.492-1.411 3.621-1.568 4-0.076 0.183-0.251 0.633-0.389 1-0.138 0.366-0.381 1.004-0.54 1.416-0.159 0.413-0.346 0.9-0.415 1.084-0.07 0.183-0.257 0.67-0.416 1.083s-0.402 1.05-0.54 1.417c-0.138 0.366-0.308 0.816-0.378 1-0.411 1.08-0.646 1.742-0.83 2.333-0.115 0.367-0.305 0.892-0.423 1.167s-0.343 0.875-0.499 1.333c-0.157 0.458-0.325 0.946-0.374 1.083-0.811 2.264-1.149 3.227-1.709 4.872-0.365 1.076-0.665 1.996-0.665 2.046 0 0.049 1.434 0.069 3.187 0.044l3.186-0.045 1.038-3.083c0.57-1.696 1.084-3.196 1.141-3.334 0.057-0.137 0.553-1.6 1.103-3.25s1.232-3.637 1.517-4.416c0.285-0.78 0.694-1.942 0.909-2.584 0.215-0.641 0.627-1.804 0.916-2.583s0.587-1.604 0.661-1.833c0.156-0.48 1.776-4.751 1.992-5.25 0.079-0.184 0.257-0.634 0.395-1 0.931-2.465 1.241-3.234 1.918-4.75 0.265-0.596 0.618-1.44 0.783-1.875 0.165-0.436 0.351-0.792 0.414-0.792 0.206 0 1.982 4.22 3.965 9.417 0.14 0.366 0.356 0.903 0.481 1.192 0.125 0.288 0.228 0.632 0.228 0.763 0 0.132 0.051 0.291 0.114 0.353 0.106 0.106 0.368 0.76 0.712 1.775 0.078 0.229 0.377 1.054 0.664 1.833 0.288 0.779 0.675 1.867 0.861 2.417 0.187 0.55 0.403 1.15 0.482 1.333 0.079 0.184 0.296 0.784 0.483 1.334s0.573 1.637 0.857 2.416 0.579 1.642 0.656 1.917 0.64 1.925 1.251 3.667c0.612 1.741 1.298 3.729 1.526 4.416 0.734 2.218 0.297 2 4.005 2 1.772 0 3.222-0.026 3.222-0.058 0-0.1-0.354-1.175-0.502-1.525-0.077-0.183-0.291-0.783-0.475-1.333s-0.646-1.863-1.027-2.917-0.767-2.142-0.858-2.417-0.228-0.65-0.305-0.833-0.265-0.708-0.418-1.167c-0.153-0.458-0.346-0.963-0.43-1.122-0.083-0.16-0.152-0.373-0.152-0.475s-0.102-0.422-0.227-0.711c-0.321-0.741-0.624-1.527-1.615-4.192-0.478-1.283-0.961-2.558-1.074-2.833s-0.337-0.838-0.498-1.25c-0.161-0.413-0.354-0.9-0.43-1.083-0.076-0.184-0.374-0.934-0.661-1.667-0.288-0.733-0.588-1.483-0.666-1.667-0.079-0.183-0.566-1.383-1.083-2.666-0.517-1.284-1.004-2.484-1.082-2.667-0.46-1.084-0.685-1.604-1.086-2.5-0.246-0.55-0.581-1.338-0.744-1.75-0.164-0.413-0.499-1.2-0.745-1.75s-0.547-1.225-0.669-1.5c-0.908-2.043-1.447-3.226-1.632-3.583-0.221-0.425-5.168-0.749-5.722-0.375m23.438 0.083c0.012 0.594 2.046 6.578 3.668 10.792 0.194 0.504 0.414 1.104 0.489 1.333 0.161 0.497 1.895 5.065 2.372 6.25 0.184 0.458 0.393 0.983 0.465 1.167 0.264 0.681 0.713 1.844 0.836 2.166 0.069 0.184 0.255 0.671 0.412 1.084 0.269 0.707 0.466 1.189 0.887 2.166 0.099 0.23 0.715 1.73 1.37 3.334s1.255 3.066 1.335 3.25c0.079 0.183 0.304 0.708 0.499 1.166 0.461 1.085 0.801 1.847 1.185 2.657 0.172 0.361 0.312 0.711 0.312 0.779s0.253 0.673 0.562 1.344 0.737 1.633 0.95 2.137c0.214 0.504 0.543 1.217 0.732 1.583l0.344 0.667 2.785 0.046 2.786 0.045 0.683-1.462c0.376-0.804 0.987-2.175 1.358-3.046 0.372-0.871 0.899-2.071 1.172-2.666 0.273-0.596 0.753-1.721 1.067-2.5 0.314-0.78 0.643-1.547 0.732-1.706 0.089-0.16 0.162-0.364 0.162-0.454 0-0.091 0.18-0.56 0.4-1.044s0.636-1.48 0.925-2.213 0.59-1.483 0.669-1.667c0.079-0.183 0.379-0.933 0.667-1.666 0.288-0.734 0.585-1.484 0.661-1.667s0.254-0.633 0.395-1 0.479-1.229 0.75-1.917c0.272-0.687 0.662-1.737 0.866-2.333 0.205-0.596 0.469-1.308 0.587-1.583 0.119-0.275 0.528-1.363 0.91-2.417 0.381-1.054 0.795-2.179 0.919-2.5s0.419-1.127 0.655-1.792c0.236-0.664 0.617-1.716 0.846-2.337 0.229-0.62 0.417-1.178 0.417-1.239s0.085-0.321 0.19-0.579c0.58-1.431 1.411-3.999 1.351-4.178-0.099-0.299-5.934-0.299-6.153 0-0.084 0.115-0.287 0.621-0.451 1.125-0.165 0.504-0.356 1.067-0.427 1.25-0.168 0.441-0.375 1.04-1.349 3.917-0.451 1.329-1.048 3.054-1.329 3.833-0.28 0.779-0.662 1.867-0.849 2.417s-0.399 1.15-0.47 1.333c-0.168 0.431-0.405 1.122-1.088 3.167-0.306 0.916-0.634 1.854-0.729 2.083s-0.371 0.979-0.614 1.667c-0.242 0.687-0.556 1.55-0.698 1.916-0.142 0.367-0.315 0.817-0.384 1-0.07 0.184-0.249 0.652-0.397 1.042-0.149 0.39-0.391 1.027-0.54 1.417-0.148 0.389-0.332 0.858-0.408 1.041-0.076 0.184-0.673 1.646-1.328 3.25-1.768 4.337-1.692 4.181-1.926 3.987-0.114-0.094-0.4-0.655-0.637-1.247-0.237-0.593-0.573-1.395-0.747-1.784-0.174-0.388-0.554-1.306-0.845-2.039s-0.629-1.558-0.751-1.833-0.336-0.838-0.475-1.25c-0.14-0.413-0.382-1.05-0.538-1.417s-0.579-1.492-0.941-2.5c-0.361-1.008-0.753-2.096-0.871-2.417s-0.381-1.071-0.584-1.666c-0.203-0.596-0.43-1.234-0.504-1.417-0.571-1.412-1.073-2.821-2.196-6.167-0.185-0.55-0.402-1.15-0.483-1.333-0.17-0.387-1.007-2.814-2.154-6.25-0.444-1.329-0.902-2.623-1.018-2.875l-0.211-0.458h-3.14c-2.403 0-3.139 0.049-3.136 0.208m56.203 0c-0.146 0.183-0.477 0.877-1.291 2.708-0.122 0.275-0.453 1.012-0.736 1.637-0.282 0.625-0.513 1.167-0.513 1.204s-0.196 0.5-0.435 1.03c-0.716 1.584-1.038 2.337-1.554 3.629-0.073 0.184-0.214 0.521-0.313 0.75-0.099 0.23-0.338 0.792-0.531 1.25-0.194 0.459-0.416 0.984-0.495 1.167s-0.379 0.933-0.666 1.667c-0.288 0.733-0.588 1.483-0.667 1.666-0.079 0.184-0.379 0.934-0.667 1.667-0.287 0.733-0.588 1.483-0.668 1.667-0.08 0.183-0.276 0.708-0.436 1.166-0.161 0.459-0.344 0.909-0.408 1-0.064 0.092-0.27 0.62-0.459 1.174s-0.434 1.229-0.546 1.5c-0.424 1.034-0.611 1.509-0.784 1.993-0.687 1.925-1.602 4.44-1.819 5-0.707 1.823-1.331 3.528-1.709 4.667-0.183 0.55-0.665 1.961-1.071 3.136-0.51 1.477-0.677 2.161-0.541 2.213 0.108 0.041 1.539 0.055 3.18 0.03l2.983-0.046 0.896-2.583c0.492-1.421 0.935-2.734 0.983-2.917 0.049-0.183 0.151-0.483 0.227-0.667 0.076-0.183 0.267-0.746 0.425-1.25s0.353-1.066 0.434-1.25c0.08-0.183 0.214-0.558 0.297-0.833 0.084-0.275 0.577-1.7 1.097-3.167 0.52-1.466 0.983-2.816 1.029-3 0.047-0.183 0.19-0.569 0.318-0.858s0.233-0.587 0.233-0.663 0.188-0.646 0.417-1.267c0.229-0.62 0.613-1.672 0.852-2.337 0.471-1.306 1.818-4.833 2.053-5.375 0.08-0.183 0.239-0.596 0.353-0.916 0.115-0.321 0.3-0.809 0.411-1.084s0.335-0.837 0.498-1.25c0.162-0.412 0.402-1.012 0.534-1.333 0.131-0.321 0.298-0.733 0.371-0.917 1.271-3.203 1.364-3.296 1.987-1.989 0.606 1.273 0.754 1.625 1.948 4.656 0.614 1.558 1.22 3.051 1.346 3.317 0.127 0.266 0.23 0.608 0.23 0.759s0.063 0.345 0.14 0.432c0.128 0.146 0.553 1.268 1.637 4.325 0.228 0.642 0.489 1.351 0.581 1.577 0.092 0.225 0.317 0.863 0.5 1.416 0.183 0.554 0.397 1.157 0.475 1.341 0.078 0.183 0.268 0.708 0.422 1.166 0.154 0.459 0.341 0.984 0.416 1.167 0.074 0.183 0.373 1.046 0.664 1.917 0.29 0.871 0.57 1.695 0.621 1.833 0.39 1.044 1.202 3.369 2.039 5.833 0.544 1.605 1.085 3.161 1.201 3.459l0.211 0.541h3.213c1.768 0 3.214-0.06 3.214-0.133s-0.339-1.105-0.754-2.292c-0.414-1.187-0.982-2.833-1.263-3.658-0.28-0.825-0.616-1.736-0.746-2.025-0.131-0.289-0.237-0.641-0.237-0.782s-0.075-0.303-0.167-0.36c-0.092-0.056-0.167-0.229-0.168-0.385 0-0.155-0.113-0.496-0.25-0.759-0.137-0.262-0.249-0.614-0.249-0.782 0-0.167-0.069-0.347-0.154-0.399-0.084-0.052-0.206-0.336-0.271-0.629-0.064-0.294-0.175-0.65-0.245-0.79-0.071-0.141-0.241-0.556-0.377-0.922-0.137-0.367-0.378-1.004-0.537-1.417s-0.346-0.9-0.416-1.083c-0.264-0.696-0.659-1.718-1.222-3.167-0.32-0.825-0.932-2.4-1.359-3.5s-0.888-2.263-1.025-2.583c-0.311-0.727-0.197-0.455-2.23-5.333-0.935-2.246-1.85-4.421-2.032-4.833-0.182-0.413-0.395-0.901-0.473-1.084-0.359-0.851-0.916-2.105-1.43-3.221-0.309-0.671-0.562-1.285-0.562-1.363 0-0.654-5.465-1.074-5.96-0.458m28.075-0.101c-0.063 0.063-0.115 9.552-0.115 21.087v20.972h25.342l-0.092-4.916-9.533-0.084c-6.302-0.055-9.593-0.142-9.708-0.257-0.119-0.119-0.188-6.034-0.217-18.5l-0.042-18.326-2.76-0.046c-1.518-0.025-2.812 7e-3 -2.875 0.07m31.571 0.119c-0.137 0.166-0.176 5.797-0.145 21.042l0.042 20.815h25.5l0.049-2.083c0.026-1.146 6e-3 -2.252-0.045-2.457l-0.093-0.374-19.244-0.086-0.042-18.317c-0.031-13.199-0.095-18.38-0.229-18.542-0.271-0.326-5.522-0.324-5.793 2e-3m52.584 4.193c7.047 1.205 11.292 7.397 11.309 16.497 6e-3 3.486-0.798 7.906-1.607 8.825-0.076 0.087-0.139 0.257-0.139 0.377 0 0.7-2.33 3.843-3.681 4.966-3.417 2.839-8.885 3.6-13.652 1.899-3.309-1.18-6.471-4.783-7.662-8.733-0.111-0.367-0.273-0.905-0.36-1.197-1.349-4.523-0.632-11.901 1.556-16.008 0.891-1.673 3.286-4.333 4.386-4.871 0.273-0.134 0.609-0.33 0.747-0.436 0.137-0.105 0.775-0.384 1.416-0.62 2.531-0.929 5.018-1.155 7.687-0.699m-322.28 42.279c7e-3 17.219-0.049 28.987-0.14 29.042-0.309 0.192-1.671-1.134-3.224-3.14-0.206-0.266-0.677-0.866-1.047-1.333-2.311-2.921-5.373-9.097-6.413-12.934-0.112-0.413-0.302-1.088-0.423-1.5-0.121-0.413-0.344-1.388-0.495-2.167s-0.312-1.566-0.358-1.75c-0.046-0.183-0.149-1.008-0.228-1.833-0.738-7.623 0.15-13.586 3.088-20.75 0.596-1.453 2.627-5.265 3.464-6.5 1.205-1.78 1.526-2.239 1.629-2.333 0.05-0.046 0.435-0.535 0.854-1.086 1.477-1.938 2.987-3.378 3.144-2.998 0.076 0.184 0.143 13.36 0.149 29.282m95.595 3.796c-7.523 1.389-13.111 6.329-15.372 13.589-0.406 1.305-0.483 1.629-0.87 3.667-0.338 1.78-0.252 7.711 0.144 9.916 2.339 13.026 11.823 18.541 27.348 15.903 0.871-0.148 1.921-0.326 2.334-0.396 0.891-0.151 2.268-0.491 2.791-0.69l0.375-0.143v-19.682l-5.75 0.092-0.086 15.406-0.374 0.205c-0.205 0.113-0.748 0.255-1.206 0.316-0.459 0.06-1.546 0.204-2.417 0.32-5.36 0.71-10.018-0.716-13.054-3.995-2.029-2.191-2.719-3.706-3.797-8.336-0.29-1.244-0.294-7.428-6e-3 -8.666 0.981-4.213 2.176-6.674 4.262-8.77 0.974-0.978 3.361-2.598 4.156-2.819 0.195-0.054 0.506-0.163 0.689-0.242 1.652-0.706 7.284-0.914 9.5-0.35 1.813 0.461 3.714 1.093 4.642 1.542 1.234 0.597 1.569 0.602 1.714 0.025 0.062-0.246 0.213-0.64 0.335-0.875 0.123-0.236 0.224-0.523 0.225-0.639 0-0.115 0.067-0.34 0.147-0.5 1.1-2.175 1.01-2.402-1.318-3.327-4.187-1.663-10.264-2.317-14.412-1.551m79.917-0.14c-4.137 0.837-5.807 1.462-8.309 3.107-4.752 3.126-7.57 7.955-8.62 14.776-0.534 3.468-0.049 9.944 0.925 12.346 0.075 0.183 0.267 0.708 0.427 1.167 1.527 4.367 5.163 8.458 9.26 10.419 0.587 0.281 1.179 0.571 1.317 0.645 0.236 0.127 2.057 0.684 3.333 1.02 2.634 0.694 7.134 0.607 10.278-0.197 0.474-0.122 0.918-0.277 0.986-0.346 0.069-0.068 0.271-0.125 0.45-0.125 1.158 0 5.517-2.72 7.244-4.52 1.324-1.38 3.709-4.893 3.709-5.463 0-0.067 0.162-0.454 0.359-0.86 0.197-0.407 0.42-0.965 0.495-1.24 4.003-14.68-1.469-27.141-13.271-30.223-2.524-0.659-6.63-0.901-8.583-0.506m-47.333 0.498c-3.474 0.275-6.161 0.704-6.36 1.017-0.075 0.118-0.118 9.514-0.096 20.881l0.039 20.666h5.833l0.084-8.083c0.045-4.446 0.144-8.177 0.218-8.292 0.102-0.157 1.129-0.208 4.191-0.208h4.056l0.584 0.708c0.321 0.39 0.965 1.196 1.43 1.792s0.905 1.158 0.978 1.25c0.555 0.705 3.633 5.125 3.771 5.417 0.15 0.317 0.372 0.68 1.148 1.878 0.343 0.529 0.624 0.995 0.624 1.036s0.412 0.754 0.916 1.586c0.505 0.831 0.917 1.548 0.917 1.592 0 0.045 0.188 0.379 0.419 0.744l0.419 0.664h3.081c2.923 0 3.081-0.017 3.081-0.319 0-0.396-1.516-3.346-2.651-5.156-0.467-0.745-0.849-1.39-0.849-1.433s-0.394-0.678-0.875-1.411-1.241-1.907-1.688-2.607c-0.448-0.701-1.704-2.46-2.792-3.909-1.846-2.458-2.247-3.165-1.795-3.165 0.187 0 1.2-0.413 1.65-0.672 0.137-0.08 0.55-0.306 0.917-0.503 0.366-0.198 1.002-0.633 1.413-0.967 1.915-1.559 2.694-2.701 3.844-5.639 0.078-0.2 0.232-1.167 0.343-2.149 0.671-5.961-2.216-11.119-7.267-12.986-0.458-0.17-0.908-0.357-1-0.417-1.629-1.063-9.169-1.743-14.583-1.315m127.67 8e-3c-2.739 0.206-5.687 0.647-6.125 0.916l-0.375 0.231 3e-3 20.538c1e-3 11.296 0.063 20.634 0.137 20.75 0.103 0.162 0.811 0.202 2.956 0.167l2.821-0.046 0.083-7.833 0.084-7.833 5-0.099c2.936-0.058 5.378-0.183 5.916-0.302 0.504-0.112 1.442-0.317 2.084-0.454 7.586-1.629 11.576-7.189 10.513-14.648-0.728-5.101-3.186-8.05-8.347-10.01-3.37-1.281-9.015-1.807-14.75-1.377m-48.555 0.417c-0.246 0.246-0.113 28.223 0.141 29.889 0.302 1.974 0.916 4.185 1.27 4.575 0.08 0.087 0.144 0.254 0.144 0.369 0 1.385 3.4 4.997 5.969 6.342 3.881 2.031 10.829 2.452 14.781 0.896 3.218-1.267 7.584-4.965 7.584-6.423 0-0.038 0.213-0.543 0.474-1.122 1.495-3.315 1.442-2.6 1.442-19.637v-14.916l-2.854-0.046c-2.846-0.045-2.855-0.044-2.956 0.333-0.056 0.209-0.104 6.679-0.107 14.379-5e-3 15.532-0.015 15.672-1.274 18.138-3.742 7.325-15.558 6.467-17.963-1.304-0.17-0.55-0.368-1.188-0.44-1.417-0.293-0.937-0.339-3.09-0.339-16.026 0-8.56-0.06-13.64-0.164-13.834-0.168-0.313-5.411-0.492-5.708-0.196m-25.372 4.491c0.942 0.25 1.567 0.477 2.594 0.943 1.885 0.856 5.333 4.108 5.333 5.03 0 0.054 0.175 0.378 0.389 0.72 0.36 0.575 1.152 2.713 1.591 4.289 0.706 2.542 0.66 8.656-0.086 11.25-0.77 2.68-1.847 5.135-2.559 5.833-0.046 0.046-0.373 0.442-0.725 0.88-3.911 4.867-12.409 5.865-17.693 2.078-2.561-1.835-4.107-4.219-5.414-8.349-0.894-2.825-0.875-9.468 0.036-12.442 1.613-5.272 3.885-7.97 8.211-9.755 1.817-0.75 6.323-1.008 8.323-0.477m-43.989 0.551c2.189 0.432 3.774 1.189 4.951 2.366 2.7 2.701 2.604 8.677-0.178 11.012-0.553 0.464-2.15 1.303-2.481 1.303-0.17 0-0.38 0.069-0.467 0.154-0.399 0.388-2.83 0.581-7.409 0.588l-4.75 8e-3 -0.043-7.648c-0.032-5.688 7e-3 -7.708 0.153-7.884 0.247-0.297 8.628-0.214 10.224 0.101m126.9-0.142c4.484 0.72 7.151 2.78 7.859 6.067 0.401 1.867 0.08 4.615-0.693 5.922-0.081 0.138-0.216 0.407-0.299 0.598-1.118 2.56-6.213 4.021-13.514 3.874l-2.75-0.055-0.044-8.083c-0.024-4.446-7e-3 -8.177 0.037-8.292 0.102-0.268 7.774-0.293 9.404-0.031" fill="#fafbfb"/>
  <path d="m0 67.25v67.25h400v-134.5h-400v67.25m72.536-47.913c4.687 0.464 9.467 1.614 12.906 3.102 0.289 0.125 0.579 0.228 0.644 0.228 1.119 0 9.897 5.278 10.576 6.359 1.348 2.145 0.018 4.641-2.473 4.641-1.079 0-1.718-0.308-4.022-1.935-1.202-0.849-6.081-3.399-6.503-3.399-0.084 0-0.436-0.123-0.783-0.273-0.921-0.398-1.198-0.501-2.214-0.817-0.505-0.157-1.077-0.345-1.271-0.418-0.195-0.073-0.87-0.254-1.5-0.403-0.631-0.149-1.484-0.35-1.896-0.448-0.413-0.098-1.256-0.244-1.875-0.326-0.619-0.081-1.669-0.22-2.333-0.307-1.893-0.25-7.496-0.201-9.042 0.078-0.733 0.133-1.587 0.243-1.897 0.244-0.311 2e-3 -0.836 0.074-1.167 0.161-0.331 0.086-1.165 0.278-1.853 0.426-0.687 0.149-1.587 0.377-2 0.509-0.969 0.308-3.417 1.15-4.166 1.433-1.121 0.424-4.262 2.04-5.709 2.937l-1.458 0.905v69.282l0.583 0.445c0.918 0.7 5.482 2.949 7.5 3.697 12.367 4.577 26.109 3.008 38.334-4.379 2.889-1.746 4.147-1.876 5.355-0.552 1.714 1.878 1.177 3.792-1.539 5.487-0.632 0.395-1.375 0.88-1.65 1.078-0.275 0.197-0.612 0.408-0.75 0.468-0.137 0.06-0.475 0.246-0.75 0.414-1.611 0.98-4.355 2.278-6.916 3.272-0.413 0.16-0.938 0.364-1.167 0.455-0.572 0.225-1.56 0.542-2.75 0.881-0.55 0.157-1.187 0.35-1.417 0.428-0.229 0.079-0.791 0.214-1.25 0.301-0.458 0.086-1.621 0.308-2.583 0.492-8.358 1.603-18.58 0.297-26.833-3.427-7.589-3.424-14.172-8.584-19-14.89-0.229-0.3-0.492-0.627-0.584-0.728-0.268-0.295-1.583-2.233-1.583-2.333 0-0.05-0.263-0.457-0.584-0.903-0.321-0.447-0.93-1.479-1.354-2.292-0.424-0.814-0.936-1.78-1.136-2.147-0.77-1.403-2.039-4.67-2.915-7.5-3.096-10.004-1.892-22.946 3.086-33.166 1.318-2.706 3.698-6.6 4.686-7.667 0.17-0.183 0.68-0.821 1.134-1.417 3.937-5.168 11.866-11.098 18.833-14.084 0.275-0.117 0.688-0.297 0.917-0.398 1.004-0.442 3.581-1.338 5.083-1.767 0.55-0.157 1.225-0.358 1.5-0.446 0.275-0.089 0.837-0.225 1.25-0.304s1.05-0.215 1.417-0.301c0.64-0.151 2.188-0.377 4.666-0.681 1.678-0.205 6.448-0.214 8.453-0.015m68.682 4e-3c3.155 0.459 5.448 1.093 7.582 2.095 1.257 0.59 1.256 0.557 0.122 3.731-0.63 1.765-0.642 1.772-1.96 1.175-2.675-1.213-6.09-2.006-8.641-2.008-1.184-1e-3 -3.928 0.405-4.738 0.7-2.903 1.06-4.691 2.31-6.283 4.394-1.567 2.051-2.255 3.706-3.15 7.572-0.288 1.246-0.297 7.07-0.013 8.5 0.427 2.152 1.139 4.611 1.376 4.758 0.085 0.052 0.154 0.2 0.154 0.329 0 1.718 4.03 5.505 7.083 6.656 3.872 1.461 10.69 0.887 15.38-1.295 0.481-0.223 0.765 0.043 1.034 0.969 0.107 0.366 0.306 1.041 0.443 1.5 0.707 2.362 0.709 2.358-1.14 3.035-5.737 2.1-14.034 2.43-18.217 0.725-9.253-3.773-13.301-11.223-12.574-23.135 0.556-9.112 5.505-16.134 13.257-18.811 2.685-0.927 7.289-1.326 10.285-0.89m220.3 0.072c5.391 0.848 9.433 3.178 12.561 7.244 0.825 1.072 2.919 5.058 2.922 5.562 1e-3 0.167 0.09 0.467 0.198 0.667 0.207 0.386 0.275 0.677 0.8 3.447 2.005 10.573-2.52 21.209-10.615 24.949-3.73 1.724-9.103 2.479-12.464 1.752-0.55-0.119-1.375-0.299-1.834-0.399-1.01-0.22-2.599-0.715-3.023-0.942-0.171-0.091-0.61-0.295-0.977-0.455-1.53-0.665-4.18-2.574-5.188-3.738-0.199-0.229-0.56-0.642-0.804-0.917-1.826-2.063-3.599-5.657-4.316-8.75-1.538-6.639-0.651-13.8 2.385-19.25 1.148-2.06 3.439-4.589 5.214-5.756 0.343-0.226 0.624-0.467 0.625-0.535 0-0.069 0.077-0.125 0.171-0.125 0.093 0 0.45-0.173 0.792-0.384 1.036-0.639 3.575-1.648 4.955-1.969 2.787-0.648 6.055-0.8 8.598-0.401m-186.89 1.254c0.185 0.357 0.724 1.54 1.632 3.583 0.122 0.275 0.423 0.95 0.669 1.5s0.581 1.337 0.745 1.75c0.163 0.412 0.498 1.2 0.744 1.75 0.401 0.896 0.626 1.416 1.086 2.5 0.078 0.183 0.565 1.383 1.082 2.667 0.517 1.283 1.004 2.483 1.083 2.666 0.078 0.184 0.378 0.934 0.666 1.667 0.287 0.733 0.585 1.483 0.661 1.667 0.076 0.183 0.269 0.67 0.43 1.083 0.161 0.412 0.385 0.975 0.498 1.25s0.596 1.55 1.074 2.833c0.991 2.665 1.294 3.451 1.615 4.192 0.125 0.289 0.227 0.609 0.227 0.711s0.069 0.315 0.152 0.475c0.084 0.159 0.277 0.664 0.43 1.122 0.153 0.459 0.341 0.984 0.418 1.167s0.214 0.558 0.305 0.833 0.477 1.363 0.858 2.417 0.843 2.367 1.027 2.917 0.398 1.15 0.475 1.333c0.148 0.35 0.502 1.425 0.502 1.525 0 0.032-1.45 0.058-3.222 0.058-3.708 0-3.271 0.218-4.005-2-0.228-0.687-0.914-2.675-1.526-4.416-0.611-1.742-1.174-3.392-1.251-3.667s-0.372-1.138-0.656-1.917-0.67-1.866-0.857-2.416-0.404-1.15-0.483-1.334c-0.079-0.183-0.295-0.783-0.482-1.333-0.186-0.55-0.573-1.638-0.861-2.417-0.287-0.779-0.586-1.604-0.664-1.833-0.344-1.015-0.606-1.669-0.712-1.775-0.063-0.062-0.114-0.221-0.114-0.353 0-0.131-0.103-0.475-0.228-0.763-0.125-0.289-0.341-0.826-0.481-1.192-1.983-5.197-3.759-9.417-3.965-9.417-0.063 0-0.249 0.356-0.414 0.792-0.165 0.435-0.518 1.279-0.783 1.875-0.677 1.516-0.987 2.285-1.918 4.75-0.138 0.366-0.316 0.816-0.395 1-0.216 0.499-1.836 4.77-1.992 5.25-0.074 0.229-0.372 1.054-0.661 1.833s-0.701 1.942-0.916 2.583c-0.215 0.642-0.624 1.804-0.909 2.584-0.285 0.779-0.967 2.766-1.517 4.416s-1.046 3.113-1.103 3.25c-0.057 0.138-0.571 1.638-1.141 3.334l-1.038 3.083-3.186 0.045c-1.753 0.025-3.187 5e-3 -3.187-0.044 0-0.05 0.3-0.97 0.665-2.046 0.56-1.645 0.898-2.608 1.709-4.872 0.049-0.137 0.217-0.625 0.374-1.083 0.156-0.458 0.381-1.058 0.499-1.333s0.308-0.8 0.423-1.167c0.184-0.591 0.419-1.253 0.83-2.333 0.07-0.184 0.24-0.634 0.378-1 0.138-0.367 0.381-1.004 0.54-1.417s0.346-0.9 0.416-1.083c0.069-0.184 0.256-0.671 0.415-1.084 0.159-0.412 0.402-1.05 0.54-1.416 0.138-0.367 0.313-0.817 0.389-1 0.157-0.379 0.991-2.508 1.568-4 0.374-0.969 1.543-3.894 2.031-5.084 0.132-0.321 0.311-0.713 0.398-0.872 0.087-0.16 0.159-0.361 0.159-0.447 0-0.087 0.229-0.669 0.51-1.294s0.571-1.287 0.646-1.47c0.074-0.183 0.328-0.752 0.564-1.263 0.236-0.512 0.574-1.3 0.752-1.751 0.178-0.452 0.595-1.408 0.926-2.124 0.331-0.717 0.602-1.33 0.602-1.363 0-0.2 1.08-2.355 1.232-2.457 0.554-0.374 5.501-0.05 5.722 0.375m24.203-0.042c0.116 0.252 0.574 1.546 1.018 2.875 1.147 3.436 1.984 5.863 2.154 6.25 0.081 0.183 0.298 0.783 0.483 1.333 1.123 3.346 1.625 4.755 2.196 6.167 0.074 0.183 0.301 0.821 0.504 1.417 0.203 0.595 0.466 1.345 0.584 1.666s0.51 1.409 0.871 2.417c0.362 1.008 0.785 2.133 0.941 2.5s0.398 1.004 0.538 1.417c0.139 0.412 0.353 0.975 0.475 1.25s0.46 1.1 0.751 1.833 0.671 1.651 0.845 2.039c0.174 0.389 0.51 1.191 0.747 1.784 0.237 0.592 0.523 1.153 0.637 1.247 0.234 0.194 0.158 0.35 1.926-3.987 0.655-1.604 1.252-3.066 1.328-3.25 0.076-0.183 0.26-0.652 0.408-1.041 0.149-0.39 0.391-1.027 0.54-1.417 0.148-0.39 0.327-0.858 0.397-1.042 0.069-0.183 0.242-0.633 0.384-1 0.142-0.366 0.456-1.229 0.698-1.916 0.243-0.688 0.519-1.438 0.614-1.667s0.423-1.167 0.729-2.083c0.683-2.045 0.92-2.736 1.088-3.167 0.071-0.183 0.283-0.783 0.47-1.333s0.569-1.638 0.849-2.417c0.281-0.779 0.878-2.504 1.329-3.833 0.974-2.877 1.181-3.476 1.349-3.917 0.071-0.183 0.262-0.746 0.427-1.25 0.164-0.504 0.367-1.01 0.451-1.125 0.219-0.299 6.054-0.299 6.153 0 0.06 0.179-0.771 2.747-1.351 4.178-0.105 0.258-0.19 0.518-0.19 0.579s-0.188 0.619-0.417 1.239c-0.229 0.621-0.61 1.673-0.846 2.337-0.236 0.665-0.531 1.471-0.655 1.792s-0.538 1.446-0.919 2.5c-0.382 1.054-0.791 2.142-0.91 2.417-0.118 0.275-0.382 0.987-0.587 1.583-0.204 0.596-0.594 1.646-0.866 2.333-0.271 0.688-0.609 1.55-0.75 1.917s-0.319 0.817-0.395 1-0.373 0.933-0.661 1.667c-0.288 0.733-0.588 1.483-0.667 1.666-0.079 0.184-0.38 0.934-0.669 1.667s-0.705 1.729-0.925 2.213-0.4 0.953-0.4 1.044c0 0.09-0.073 0.294-0.162 0.454-0.089 0.159-0.418 0.926-0.732 1.706-0.314 0.779-0.794 1.904-1.067 2.5-0.273 0.595-0.8 1.795-1.172 2.666-0.371 0.871-0.982 2.242-1.358 3.046l-0.683 1.462-2.786-0.045-2.785-0.046-0.344-0.667c-0.189-0.366-0.518-1.079-0.732-1.583-0.213-0.504-0.641-1.466-0.95-2.137s-0.562-1.276-0.562-1.344-0.14-0.418-0.312-0.779c-0.384-0.81-0.724-1.572-1.185-2.657-0.195-0.458-0.42-0.983-0.499-1.166-0.08-0.184-0.68-1.646-1.335-3.25s-1.271-3.104-1.37-3.334c-0.421-0.977-0.618-1.459-0.887-2.166-0.157-0.413-0.343-0.9-0.412-1.084-0.123-0.322-0.572-1.485-0.836-2.166-0.072-0.184-0.281-0.709-0.465-1.167-0.477-1.185-2.211-5.753-2.372-6.25-0.075-0.229-0.295-0.829-0.489-1.333-0.954-2.48-3.299-9.148-3.516-10-0.267-1.054-0.429-1 2.984-1h3.14l0.211 0.458m55.414-0.196c0.144 0.144 0.262 0.326 0.262 0.404s0.253 0.692 0.562 1.363c0.514 1.116 1.071 2.37 1.43 3.221 0.078 0.183 0.291 0.671 0.473 1.084 0.182 0.412 1.097 2.587 2.032 4.833 2.033 4.878 1.919 4.606 2.23 5.333 0.137 0.32 0.598 1.483 1.025 2.583s1.039 2.675 1.359 3.5c0.563 1.449 0.958 2.471 1.222 3.167 0.07 0.183 0.257 0.67 0.416 1.083s0.4 1.05 0.537 1.417c0.136 0.366 0.306 0.781 0.377 0.922 0.07 0.14 0.181 0.496 0.245 0.79 0.065 0.293 0.187 0.577 0.271 0.629 0.085 0.052 0.154 0.232 0.154 0.399 0 0.168 0.112 0.52 0.249 0.782 0.137 0.263 0.25 0.604 0.25 0.759 1e-3 0.156 0.076 0.329 0.168 0.385 0.092 0.057 0.167 0.219 0.167 0.36s0.106 0.493 0.237 0.782c0.13 0.289 0.466 1.2 0.746 2.025 0.281 0.825 0.849 2.471 1.263 3.658 0.415 1.187 0.754 2.219 0.754 2.292s-1.446 0.133-3.214 0.133h-3.213l-0.211-0.541c-0.116-0.298-0.657-1.854-1.201-3.459-0.837-2.464-1.649-4.789-2.039-5.833-0.051-0.138-0.331-0.962-0.621-1.833-0.291-0.871-0.59-1.734-0.664-1.917-0.075-0.183-0.262-0.708-0.416-1.167-0.154-0.458-0.344-0.983-0.422-1.166-0.078-0.184-0.292-0.787-0.475-1.341-0.183-0.553-0.408-1.191-0.5-1.416-0.092-0.226-0.353-0.935-0.581-1.577-1.084-3.057-1.509-4.179-1.637-4.325-0.077-0.087-0.14-0.281-0.14-0.432s-0.103-0.493-0.23-0.759c-0.126-0.266-0.732-1.759-1.346-3.317-1.194-3.031-1.342-3.383-1.948-4.656-0.607-1.273-0.621-1.264-1.609 1.073-0.135 0.321-0.306 0.733-0.378 0.916-0.073 0.184-0.24 0.596-0.371 0.917-0.132 0.321-0.372 0.921-0.534 1.333-0.163 0.413-0.387 0.975-0.498 1.25s-0.296 0.763-0.411 1.084c-0.114 0.32-0.273 0.733-0.353 0.916-0.235 0.542-1.582 4.069-2.053 5.375-0.239 0.665-0.623 1.717-0.852 2.337-0.229 0.621-0.417 1.191-0.417 1.267s-0.105 0.374-0.233 0.663-0.271 0.675-0.318 0.858c-0.046 0.184-0.509 1.534-1.029 3-0.52 1.467-1.013 2.892-1.097 3.167-0.083 0.275-0.217 0.65-0.297 0.833-0.081 0.184-0.276 0.746-0.434 1.25s-0.349 1.067-0.425 1.25c-0.076 0.184-0.178 0.484-0.227 0.667-0.048 0.183-0.491 1.496-0.983 2.917l-0.896 2.583-2.983 0.046c-1.641 0.025-3.072 0.011-3.18-0.03-0.136-0.052 0.031-0.736 0.541-2.213 0.406-1.175 0.888-2.586 1.071-3.136 0.378-1.139 1.002-2.844 1.709-4.667 0.217-0.56 1.132-3.075 1.819-5 0.173-0.484 0.36-0.959 0.784-1.993 0.112-0.271 0.357-0.946 0.546-1.5s0.395-1.082 0.459-1.174c0.064-0.091 0.247-0.541 0.408-1 0.16-0.458 0.356-0.983 0.436-1.166 0.08-0.184 0.381-0.934 0.668-1.667 0.288-0.733 0.588-1.483 0.667-1.667 0.079-0.183 0.379-0.933 0.667-1.666 0.287-0.734 0.587-1.484 0.666-1.667s0.301-0.708 0.495-1.167c0.193-0.458 0.432-1.02 0.531-1.25 0.099-0.229 0.24-0.566 0.313-0.75 0.516-1.292 0.838-2.045 1.554-3.629 0.239-0.53 0.435-0.993 0.435-1.03s0.231-0.579 0.513-1.204c0.283-0.625 0.614-1.362 0.736-1.637 0.814-1.831 1.145-2.525 1.291-2.708 0.272-0.339 5.354-0.291 5.698 0.054m28.054 18.147c0.029 12.466 0.098 18.381 0.217 18.5 0.115 0.115 3.406 0.202 9.708 0.257l9.533 0.084 0.092 4.916h-25.342v-20.972c0-11.535 0.052-21.024 0.115-21.087s1.357-0.095 2.875-0.07l2.76 0.046 0.042 18.326m31.687-18.185c0.134 0.162 0.198 5.343 0.229 18.542l0.042 18.317 19.244 0.086 0.093 0.374c0.051 0.205 0.071 1.311 0.045 2.457l-0.049 2.083h-25.5l-0.042-20.815c-0.031-15.245 8e-3 -20.876 0.145-21.042 0.271-0.326 5.522-0.328 5.793-2e-3m42.521 4.049c-1.767 0.258-4.236 1.006-4.833 1.465-0.138 0.106-0.474 0.302-0.747 0.436-1.1 0.538-3.495 3.198-4.386 4.871-2.188 4.107-2.905 11.485-1.556 16.008 0.087 0.292 0.249 0.83 0.36 1.197 1.191 3.95 4.353 7.553 7.662 8.733 4.767 1.701 10.235 0.94 13.652-1.899 1.351-1.123 3.681-4.266 3.681-4.966 0-0.12 0.063-0.29 0.139-0.377 1.577-1.793 2.108-10.377 0.914-14.741-2.052-7.495-7.943-11.741-14.886-10.727m-319.42 13.975c-0.617 0.64-1.465 1.615-1.885 2.166-0.419 0.551-0.804 1.04-0.854 1.086-0.103 0.094-0.424 0.553-1.629 2.333-0.837 1.235-2.868 5.047-3.464 6.5-2.938 7.164-3.826 13.127-3.088 20.75 0.079 0.825 0.182 1.65 0.228 1.833 0.046 0.184 0.207 0.971 0.358 1.75s0.374 1.754 0.495 2.167c0.121 0.412 0.311 1.087 0.423 1.5 1.04 3.837 4.102 10.013 6.413 12.934 0.37 0.467 0.841 1.067 1.047 1.333 1.553 2.006 2.915 3.332 3.224 3.14 0.192-0.118 0.183-57.86-9e-3 -58.324-0.124-0.299-0.251-0.215-1.259 0.832m105.92 32.309c2.98 0.548 3.441 0.673 5.495 1.488 2.328 0.925 2.418 1.152 1.318 3.327-0.08 0.16-0.147 0.385-0.147 0.5-1e-3 0.116-0.102 0.403-0.225 0.639-0.122 0.235-0.273 0.629-0.335 0.875-0.145 0.577-0.48 0.572-1.714-0.025-0.928-0.449-2.829-1.081-4.642-1.542-2.216-0.564-7.848-0.356-9.5 0.35-0.183 0.079-0.494 0.188-0.689 0.242-0.795 0.221-3.182 1.841-4.156 2.819-2.086 2.096-3.281 4.557-4.262 8.77-0.288 1.238-0.284 7.422 6e-3 8.666 1.078 4.63 1.768 6.145 3.797 8.336 3.036 3.279 7.694 4.705 13.054 3.995 0.871-0.116 1.958-0.26 2.417-0.32 0.458-0.061 1.001-0.203 1.206-0.316l0.374-0.205 0.086-15.406 5.75-0.092v19.682l-0.375 0.143c-0.523 0.199-1.9 0.539-2.791 0.69-0.413 0.07-1.463 0.248-2.334 0.396-7.835 1.331-13.816 0.664-18.666-2.083-5.815-3.293-9.034-10.159-9.021-19.236 6e-3 -3.878 0.204-5.403 1.065-8.167 3.149-10.114 13-15.599 24.289-13.526m77.5-0.131c13.368 2.453 19.633 14.962 15.354 30.657-0.075 0.275-0.298 0.833-0.495 1.24-0.197 0.406-0.359 0.793-0.359 0.86 0 0.57-2.385 4.083-3.709 5.463-1.727 1.8-6.086 4.52-7.244 4.52-0.179 0-0.381 0.057-0.45 0.125-0.068 0.069-0.512 0.224-0.986 0.346-3.144 0.804-7.644 0.891-10.278 0.197-1.276-0.336-3.097-0.893-3.333-1.02-0.138-0.074-0.73-0.364-1.317-0.645-4.097-1.961-7.733-6.052-9.26-10.419-0.16-0.459-0.352-0.984-0.427-1.167-0.974-2.402-1.459-8.878-0.925-12.346 1.05-6.821 3.868-11.65 8.62-14.776 2.502-1.645 4.172-2.27 8.309-3.107 1.251-0.253 4.95-0.212 6.5 0.072m-45.333 0.484c2.691 0.291 5.49 0.87 6.083 1.257 0.092 0.06 0.542 0.247 1 0.417 5.051 1.867 7.938 7.025 7.267 12.986-0.111 0.982-0.265 1.949-0.343 2.149-1.15 2.938-1.929 4.08-3.844 5.639-0.411 0.334-1.047 0.769-1.413 0.967-0.367 0.197-0.78 0.423-0.917 0.503-0.45 0.259-1.463 0.672-1.65 0.672-0.452 0-0.051 0.707 1.795 3.165 1.088 1.449 2.344 3.208 2.792 3.909 0.447 0.7 1.207 1.874 1.688 2.607s0.875 1.368 0.875 1.411 0.382 0.688 0.849 1.433c1.135 1.81 2.651 4.76 2.651 5.156 0 0.302-0.158 0.319-3.081 0.319h-3.081l-0.419-0.664c-0.231-0.365-0.419-0.699-0.419-0.744 0-0.044-0.412-0.761-0.917-1.592-0.504-0.832-0.916-1.545-0.916-1.586s-0.281-0.507-0.624-1.036c-0.776-1.198-0.998-1.561-1.148-1.878-0.138-0.292-3.216-4.712-3.771-5.417-0.073-0.092-0.513-0.654-0.978-1.25s-1.109-1.402-1.43-1.792l-0.584-0.708h-4.056c-3.062 0-4.089 0.051-4.191 0.208-0.074 0.115-0.173 3.846-0.218 8.292l-0.084 8.083h-5.833l-0.039-20.666c-0.022-11.367 0.021-20.763 0.096-20.881 0.528-0.829 10.255-1.457 14.86-0.959m128.17 0.087c2.927 0.382 4.237 0.665 5.75 1.24 5.161 1.96 7.619 4.909 8.347 10.01 1.063 7.459-2.927 13.019-10.513 14.648-0.642 0.137-1.58 0.342-2.084 0.454-0.538 0.119-2.98 0.244-5.916 0.302l-5 0.099-0.084 7.833-0.083 7.833-2.821 0.046c-2.145 0.035-2.853-5e-3 -2.956-0.167-0.074-0.116-0.136-9.454-0.137-20.75l-3e-3 -20.538 0.375-0.231c1.412-0.869 10.756-1.351 15.125-0.779m-51.847 0.476c0.104 0.194 0.164 5.274 0.164 13.834 0 12.936 0.046 15.089 0.339 16.026 0.072 0.229 0.27 0.867 0.44 1.417 2.405 7.771 14.221 8.629 17.963 1.304 1.259-2.466 1.269-2.606 1.274-18.138 3e-3 -7.7 0.051-14.17 0.107-14.379 0.101-0.377 0.11-0.378 2.956-0.333l2.854 0.046v14.916c0 17.037 0.053 16.322-1.442 19.637-0.261 0.579-0.474 1.084-0.474 1.122 0 1.458-4.366 5.156-7.584 6.423-3.952 1.556-10.9 1.135-14.781-0.896-2.569-1.345-5.969-4.957-5.969-6.342 0-0.115-0.064-0.282-0.144-0.369-0.354-0.39-0.968-2.601-1.27-4.575-0.254-1.666-0.387-29.643-0.141-29.889 0.297-0.296 5.54-0.117 5.708 0.196m-37.986 4.35c-0.596 0.156-1.233 0.346-1.417 0.422-4.326 1.785-6.598 4.483-8.211 9.755-0.911 2.974-0.93 9.617-0.036 12.442 1.307 4.13 2.853 6.514 5.414 8.349 5.284 3.787 13.782 2.789 17.693-2.078 0.352-0.438 0.679-0.834 0.725-0.88 0.712-0.698 1.789-3.153 2.559-5.833 0.746-2.594 0.792-8.708 0.086-11.25-0.439-1.576-1.231-3.714-1.591-4.289-0.214-0.342-0.389-0.666-0.389-0.72 0-0.607-2.427-3.228-3.833-4.139-1.073-0.695-1.37-0.852-2.5-1.323-2.014-0.839-6.19-1.063-8.5-0.456m-47.307 0.395c-0.146 0.176-0.185 2.196-0.153 7.884l0.043 7.648 4.75-8e-3c4.579-7e-3 7.01-0.2 7.409-0.588 0.087-0.085 0.297-0.154 0.467-0.154 0.331 0 1.928-0.839 2.481-1.303 2.782-2.335 2.878-8.311 0.178-11.012-1.177-1.177-2.762-1.934-4.951-2.366-1.596-0.315-9.977-0.398-10.224-0.101m127.72-0.01c-0.044 0.115-0.061 3.846-0.037 8.292l0.044 8.083 2.75 0.055c7.301 0.147 12.396-1.314 13.514-3.874 0.083-0.191 0.218-0.46 0.299-0.598 0.773-1.307 1.094-4.055 0.693-5.922-0.708-3.287-3.375-5.347-7.859-6.067-1.63-0.262-9.302-0.237-9.404 0.031" fill="#72b9bb"/>
 </g>
</svg>
